<?xml version="1.0" encoding="utf-8"?>
<!-- Generator: Adobe Illustrator 23.0.3, SVG Export Plug-In . SVG Version: 6.00 Build 0)  -->
<svg version="1.1" id="Layer_1" xmlns="http://www.w3.org/2000/svg" xmlns:xlink="http://www.w3.org/1999/xlink" x="0px" y="0px"
	 viewBox="0 0 296 105" style="enable-background:new 0 0 296 105;" xml:space="preserve">
<style type="text/css">
	.st0{fill-rule:evenodd;clip-rule:evenodd;fill:#FFFFFF;}
	.st1{fill:#FFFFFF;}
</style>
<g>
	<path class="st0" d="M70.7,0.5c-4.8,0-9.3,0.9-13.7,2.6c-4.4-1.8-8.8-2.6-13.7-2.6c-22,0-42.3,21.1-42.3,49.8
		c0.9,30.8,26.4,55.1,57.3,54.2c29.5-0.9,53.3-24.7,54.2-54.2C113,21.6,92.7,0.5,70.7,0.5 M57,17.7c5.7,4,9.7,11,9.7,18.1
		c0.4,5.3-3.1,10.6-8.8,11c-5.3,0.4-10.6-3.1-11-8.8c0-0.9,0-1.3,0-2.2C47.3,28.3,50.9,21.6,57,17.7 M57,92.6
		c-23.4,0-42.3-18.9-42.3-42.3c0,0,0,0,0-0.4c0-21.6,15.9-36.6,28.2-36.1c-6.2,6.2-9.3,14.5-9.7,22.9C32.3,49.4,42,60.9,54.8,61.7
		c12.8,0.9,24.2-8.8,25.1-21.6c0-1.3,0-2.2,0-3.5c0-8.4-3.5-16.3-9.3-22.5C83,13.7,98.9,28.7,98.9,50.3C99.3,73.2,80.4,92.6,57,92.6
		L57,92.6"/>
	<g>
		<polygon class="st0" points="165,23.9 165,34.9 170.7,34.9 170.7,55.1 154.4,23.9 135,23.9 135,34.9 141.2,34.9 141.2,68.8 
			135,68.8 135,79.8 160.6,79.8 160.6,68.8 154.4,68.8 154.4,48.5 170.7,79.8 183.9,79.8 183.9,34.9 190.1,34.9 190.1,23.9 		"/>
		<polygon class="st0" points="242.5,45.4 242.5,23.9 194,23.9 194,45.4 205.1,45.4 205.1,34.9 210.8,34.9 210.8,68.8 202.9,68.8 
			202.9,79.8 233.7,79.8 233.7,68.8 225.8,68.8 225.8,34.9 231.5,34.9 231.5,45.4 		"/>
		<polygon class="st0" points="294.9,45.4 294.9,23.9 246.5,23.9 246.5,45.4 257.5,45.4 257.5,34.9 263.2,34.9 263.2,68.8 
			255.3,68.8 255.3,79.8 286.1,79.8 286.1,68.8 277.8,68.8 277.8,34.9 283.9,34.9 283.9,45.4 		"/>
		<path class="st1" d="M70.7,0.5c-4.8,0-9.3,0.9-13.7,2.6c-4.4-1.8-8.8-2.6-13.7-2.6c-22,0-42.3,21.1-42.3,49.8
			c0.9,30.8,26.4,55.1,57.3,54.2c29.5-0.9,53.3-24.7,54.2-54.2C113,21.6,92.7,0.5,70.7,0.5 M57,17.7c5.7,4,9.7,11,9.7,18.1
			c0.4,5.3-3.1,10.6-8.8,11c-5.3,0.4-10.6-3.1-11-8.8c0-0.9,0-1.3,0-2.2C47.3,28.3,50.9,21.6,57,17.7 M57,92.6
			c-23.4,0-42.3-18.9-42.3-42.3c0,0,0,0,0-0.4c0-21.6,15.9-36.6,28.2-36.1c-6.2,6.2-9.3,14.5-9.7,22.9C32.3,49.4,42,60.9,54.8,61.7
			c12.8,0.9,24.2-8.8,25.1-21.6c0-1.3,0-2.2,0-3.5c0-8.4-3.5-16.3-9.3-22.5C83,13.7,98.9,28.7,98.9,50.3
			C99.3,73.2,80.4,92.6,57,92.6L57,92.6"/>
	</g>
</g>
</svg>
