<?xml version="1.0" encoding="utf-8"?>
<!-- Generator: Adobe Illustrator 24.1.1, SVG Export Plug-In . SVG Version: 6.00 Build 0)  -->
<svg version="1.1" id="Layer_1" xmlns="http://www.w3.org/2000/svg" xmlns:xlink="http://www.w3.org/1999/xlink" x="0px" y="0px"
	 viewBox="0 0 1200 1200" style="enable-background:new 0 0 1200 1200;" xml:space="preserve">
<style type="text/css">
	.st0{fill:#0072BC;}
</style>
<path id="SVGID_1_" class="st0" d="M741.8,47.3c-53,0-105,11.5-141.4,26.3c-36.8-14.7-88.9-26.3-141.9-26.3
	C226,47.3,16,267.5,16,569.1c0,329.3,269,583.5,584,583.5c315.5,0,584-254.2,584-583.5C1184.5,267.5,974.4,47.3,741.8,47.3
	 M600,226.5c44.7,26.7,104.1,104.1,104.1,191.1c0,64-42.4,114.2-104.1,114.2s-104.1-50.2-104.1-114.2
	C496.4,330.6,555.3,253.2,600,226.5 M600,1009c-241.3,0-440.8-193.9-440.8-442.6c0-227.1,164-382.3,292.9-376.3
	c-60.8,60.3-97.6,149.2-97.6,234.9c0,147.4,117,251,245.9,251s245.9-103.2,245.9-251c0-85.7-36.8-174.6-98.1-234.9
	c129-6,292.5,149.2,292.5,376.3C1040.8,815.1,841.3,1009,600,1009"/>
</svg>
